<svg viewBox="0 0 1024 1024" version="1.1" xmlns="http://www.w3.org/2000/svg" width="200" height="200">
    <path fill="#FFFFFF" 
        d="M362.42944 92.3648h299.13088c180.0448 0 270.06464 90.01984 270.06464 270.06464v299.13088c0 180.0448-90.01984 270.06464-270.06464 270.06464H362.42944c-180.0448 0-270.06464-90.01984-270.06464-270.06464V362.42944c0-180.0448 90.01984-270.06464 270.06464-270.06464z">
    </path>
    <path fill="#404347"
        d="M195.9168 230.4m91.95008 0l448.26112 0q91.95008 0 91.95008 91.95008l0 379.29984q0 91.95008-91.95008 91.95008l-448.26112 0q-91.95008 0-91.95008-91.95008l0-379.29984q0-91.95008 91.95008-91.95008Z">
    </path>
    <path fill="#FAB719"
        d="M224.65536 360.46848m33.729659-7.16946l382.24944-81.249627q33.729659-7.16946 40.89912 26.560199l44.209012 207.987045q7.16946 33.729659-26.560199 40.89912l-382.249441 81.249627q-33.729659 7.16946-40.899119-26.560199l-44.209012-207.987046q-7.16946-33.729659 26.560199-40.899119Z">
    </path>
    <path fill="#FFFFFF"
        d="M236.14464 378.79808m34.294297-3.604476l473.95381-49.814553q34.294297-3.604476 37.898774 30.689822l22.226263 211.468771q3.604476 34.294297-30.689821 37.898773l-473.95381 49.814553q-34.294297 3.604476-37.898774-30.689822l-22.226263-211.468771q-3.604476-34.294297 30.689821-37.898773Z">
    </path>
    <path fill="#000000"
        d="M195.9168 425.79456a45.9776 45.9776 0 0 1 45.9776-45.9776h448.26112c76.17536 0 137.92768 61.75232 137.92768 137.92768v183.90528c0 50.78016-41.16992 91.95008-91.9552 91.95008h-448.256c-50.7904 0-91.9552-41.16992-91.9552-91.95008V425.79456z">
    </path>
    <path fill="#F7A600"
        d="M621.24032 623.24224V494.76096h25.82528v128.48128h-25.82528z">
    </path>
    <path fill="#FFFFFF"
        d="M320.24576 661.41184H264.8832v-128.4864h53.14048c25.82528 0 40.87296 14.07488 40.87296 36.09088 0 14.25408-9.66656 23.46496-16.35328 26.53184 7.9872 3.60448 18.20672 11.7248 18.20672 28.8768 0 23.99232-16.90112 36.98688-40.4992 36.98688z m-4.27008-106.10688H290.7136v29.5936h25.2672c10.96192 0 17.09568-5.95456 17.09568-14.80192 0-8.83712-6.13376-14.79168-17.09568-14.79168z m1.67424 52.15232h-26.94144v31.58016h26.93632c11.70944 0 17.28-7.21408 17.28-15.88224 0-8.65792-5.5808-15.69792-17.28-15.69792zM439.52128 608.7168v52.69504h-25.64608V608.7168l-39.7568-75.79136h28.05248l24.70912 51.7888 24.34048-51.7888h28.05248l-39.75168 75.79136zM552.49408 661.41184H497.1264v-128.4864h53.14048c25.82528 0 40.87296 14.07488 40.87296 36.09088 0 14.25408-9.66656 23.46496-16.35328 26.53184 7.98208 3.60448 18.20672 11.7248 18.20672 28.8768 0 23.99232-16.90112 36.98688-40.4992 36.98688z m-4.2752-106.10688h-25.2672v29.5936h25.2672c10.96192 0 17.09568-5.95456 17.09568-14.80192 0-8.83712-6.13376-14.79168-17.09568-14.79168z m1.66912 52.15232h-26.93632v31.58016h26.93632c11.70944 0 17.27488-7.21408 17.27488-15.88224 0-8.65792-5.56544-15.69792-17.27488-15.69792zM730.30144 555.30496v106.11712h-25.82528v-106.11712h-34.56v-22.37952h94.94528v22.37952h-34.56z">
    </path>
</svg>
