<svg viewBox="0 0 1024 1024" version="1.1" xmlns="http://www.w3.org/2000/svg" width="200" height="200">
    <path fill="#1296db"
        d="M512 0c282.752 0 512 229.248 512 512s-229.248 512-512 512S0 794.752 0 512 229.248 0 512 0z m0 85.333333c-40.704 0-80.085333 5.717333-117.418667 16.341334 50.005333-3.584 114.773333 2.56 194.389334 18.517333-45.184 26.026667-67.797333 52.650667-67.797334 79.957333 0 29.269333-26.709333 10.069333-54.101333-13.482666l-12.288-10.709334c-6.784-5.973333-13.312-11.776-19.242667-16.768-33.28-27.946667-48.426667 55.850667-48.426666 80.042667 0 24.234667-153.386667 137.173333-220.416 137.173333-21.546667 0-32.682667 7.722667-33.493334 23.168v1.749334l-0.384-1.536a117.76 117.76 0 0 1-2.389333-15.872l-0.298667-7.509334c0-12.885333-5.162667-19.626667-15.488-20.053333A424.96 424.96 0 0 0 85.333333 512a426.666667 426.666667 0 0 0 230.058667 378.794667c-5.845333-37.845333-17.962667-68.565333-36.352-92.16-44.757333-57.685333-106.112-75.648-106.112-123.008 0-23.381333-14.08-67.498667 0-116.053334 3.285333-11.392 16.085333-27.221333 38.442667-47.573333 68.565333 54.485333 117.76 81.706667 147.541333 81.706667 44.714667 0 109.866667 54.016 109.866667 81.92 0 27.946667-109.866667 81.408-109.866667 122.965333 0 19.669333-6.656 54.186667-20.010667 103.424A423.978667 423.978667 0 0 0 512 938.666667a425.6 425.6 0 0 0 317.354667-141.482667 73.856 73.856 0 0 1-18.090667-5.802667c-55.04-26.069333 55.082667-78.208 55.082667-124.757333S820.266667 536.277333 730.453333 512c-89.813333-24.32-92.970667-147.541333-27.818666-180.949333 36.693333-18.816 104.789333-12.501333 204.202666 18.944A426.666667 426.666667 0 0 0 512 85.333333z">
    </path>
</svg>
